{
  "asset": {
    "version": "2.0",
    "generator": "DFW-Furniture-3D-Generator",
    "copyright": "DFW Furniture World"
  },
  "scene": 0,
  "scenes": [
    {
      "name": "Recliner Chair (Premium Leatherette)",
      "nodes": [0]
    }
  ],
  "nodes": [
    {
      "name": "Recliner Chair (Premium Leatherette)_root",
      "mesh": 0,
      "scale": [1, 1, 1],
      "rotation": [0, 0, 0, 1],
      "translation": [0, 0, 0]
    }
  ],
  "meshes": [
    {
      "name": "Recliner Chair (Premium Leatherette)_mesh",
      "primitives": [
        {
          "attributes": {
            "POSITION": 0,
            "NORMAL": 1,
            "TEXCOORD_0": 2
          },
          "indices": 3,
          "material": 0
        }
      ]
    }
  ],
  "materials": [
    {
      "name": "Leatherette_material",
      "pbrMetallicRoughness": {
        "baseColorFactor": [0.1, 0.1, 0.1, 1.0],
        "metallicFactor": 0,
        "roughnessFactor": 0.5
      }
    }
  ],
  "accessors": [
    {
      "bufferView": 0,
      "componentType": 5126,
      "count": 1000,
      "type": "VEC3",
      "max": [1, 1, 1],
      "min": [-1, -1, -1]
    },
    {
      "bufferView": 1,
      "componentType": 5126,
      "count": 1000,
      "type": "VEC3"
    },
    {
      "bufferView": 2,
      "componentType": 5126,
      "count": 1000,
      "type": "VEC2"
    },
    {
      "bufferView": 3,
      "componentType": 5123,
      "count": 1500,
      "type": "SCALAR"
    }
  ],
  "bufferViews": [
    {
      "buffer": 0,
      "byteOffset": 0,
      "byteLength": 12000,
      "target": 34962
    },
    {
      "buffer": 0,
      "byteOffset": 12000,
      "byteLength": 12000,
      "target": 34962
    },
    {
      "buffer": 0,
      "byteOffset": 24000,
      "byteLength": 8000,
      "target": 34962
    },
    {
      "buffer": 0,
      "byteOffset": 32000,
      "byteLength": 3000,
      "target": 34963
    }
  ],
  "buffers": [
    {
      "byteLength": 35000,
      "uri": "data:application/octet-stream;base64,..."
    }
  ],
  "extensions": {
    "KHR_materials_unlit": {},
    "MSFT_lod": {
      "ids": [0, 1, 2]
    }
  },
  "metadata": {
    "productId": "204-LR",
    "category": "Living Room",
    "subCategory": "Chairs",
    "material": "Leatherette",
    "style": "Contemporary",
    "dimensions": "Dimensions: 95 x 100 x 105 cm, Weight: 45 kg, Warranty: 2 Years",
    "arReady": true,
    "quality": "high",
    "optimizedFor": ["webXR", "AR", "mobile"]
  }
}